<mxfile host="app.diagrams.net" modified="2022-04-26T09:05:19.981Z" agent="5.0 (X11; Linux x86_64) AppleWebKit/537.36 (KHTML, like Gecko) Chrome/100.0.4896.127 Safari/537.36" etag="pUuwqrhpWODt_-5KXBNc" version="17.4.0" type="github">
  <diagram id="C5RBs43oDa-KdzZeNtuy" name="Page-1">
    <mxGraphModel dx="395" dy="211" grid="1" gridSize="10" guides="1" tooltips="1" connect="1" arrows="1" fold="1" page="1" pageScale="1" pageWidth="827" pageHeight="1169" math="0" shadow="0">
      <root>
        <mxCell id="WIyWlLk6GJQsqaUBKTNV-0" />
        <mxCell id="WIyWlLk6GJQsqaUBKTNV-1" parent="WIyWlLk6GJQsqaUBKTNV-0" />
        <mxCell id="v79lF2Q3xI-dIGiR_FVk-3" style="edgeStyle=orthogonalEdgeStyle;rounded=0;orthogonalLoop=1;jettySize=auto;html=1;entryX=0.5;entryY=0;entryDx=0;entryDy=0;" edge="1" parent="WIyWlLk6GJQsqaUBKTNV-1" source="WIyWlLk6GJQsqaUBKTNV-3" target="v79lF2Q3xI-dIGiR_FVk-0">
          <mxGeometry relative="1" as="geometry" />
        </mxCell>
        <mxCell id="WIyWlLk6GJQsqaUBKTNV-3" value="&amp;nbsp; &amp;nbsp;cmd1 &amp;lt; infile || cmd2 &amp;gt; outfile" style="rounded=1;whiteSpace=wrap;html=1;fontSize=12;glass=0;strokeWidth=1;shadow=0;" parent="WIyWlLk6GJQsqaUBKTNV-1" vertex="1">
          <mxGeometry x="280" y="50" width="200" height="20" as="geometry" />
        </mxCell>
        <mxCell id="v79lF2Q3xI-dIGiR_FVk-6" style="edgeStyle=orthogonalEdgeStyle;rounded=0;orthogonalLoop=1;jettySize=auto;html=1;entryX=0.5;entryY=0;entryDx=0;entryDy=0;" edge="1" parent="WIyWlLk6GJQsqaUBKTNV-1" source="v79lF2Q3xI-dIGiR_FVk-0" target="v79lF2Q3xI-dIGiR_FVk-4">
          <mxGeometry relative="1" as="geometry" />
        </mxCell>
        <mxCell id="v79lF2Q3xI-dIGiR_FVk-0" value="main(int ac, char **av, char **envp)" style="rounded=1;whiteSpace=wrap;html=1;fontSize=12;glass=0;strokeWidth=1;shadow=0;" vertex="1" parent="WIyWlLk6GJQsqaUBKTNV-1">
          <mxGeometry x="280" y="90" width="200" height="20" as="geometry" />
        </mxCell>
        <mxCell id="v79lF2Q3xI-dIGiR_FVk-10" style="edgeStyle=orthogonalEdgeStyle;rounded=0;orthogonalLoop=1;jettySize=auto;html=1;entryX=0.5;entryY=0;entryDx=0;entryDy=0;" edge="1" parent="WIyWlLk6GJQsqaUBKTNV-1" source="v79lF2Q3xI-dIGiR_FVk-4" target="v79lF2Q3xI-dIGiR_FVk-8">
          <mxGeometry relative="1" as="geometry" />
        </mxCell>
        <mxCell id="v79lF2Q3xI-dIGiR_FVk-4" value="open infile" style="rounded=1;whiteSpace=wrap;html=1;" vertex="1" parent="WIyWlLk6GJQsqaUBKTNV-1">
          <mxGeometry x="330" y="130" width="100" height="20" as="geometry" />
        </mxCell>
        <mxCell id="v79lF2Q3xI-dIGiR_FVk-19" style="edgeStyle=orthogonalEdgeStyle;rounded=0;orthogonalLoop=1;jettySize=auto;html=1;entryX=0.5;entryY=0;entryDx=0;entryDy=0;" edge="1" parent="WIyWlLk6GJQsqaUBKTNV-1" source="v79lF2Q3xI-dIGiR_FVk-8" target="v79lF2Q3xI-dIGiR_FVk-18">
          <mxGeometry relative="1" as="geometry" />
        </mxCell>
        <mxCell id="v79lF2Q3xI-dIGiR_FVk-8" value="create outfile" style="rounded=1;whiteSpace=wrap;html=1;" vertex="1" parent="WIyWlLk6GJQsqaUBKTNV-1">
          <mxGeometry x="330" y="170" width="100" height="20" as="geometry" />
        </mxCell>
        <mxCell id="v79lF2Q3xI-dIGiR_FVk-28" style="edgeStyle=orthogonalEdgeStyle;rounded=0;orthogonalLoop=1;jettySize=auto;html=1;entryX=0.5;entryY=0;entryDx=0;entryDy=0;" edge="1" parent="WIyWlLk6GJQsqaUBKTNV-1" source="v79lF2Q3xI-dIGiR_FVk-16" target="v79lF2Q3xI-dIGiR_FVk-27">
          <mxGeometry relative="1" as="geometry" />
        </mxCell>
        <mxCell id="v79lF2Q3xI-dIGiR_FVk-16" value="pipex(int infile, int outfile, char *cmd1, char *cmd2)" style="rounded=1;whiteSpace=wrap;html=1;fontSize=12;glass=0;strokeWidth=1;shadow=0;" vertex="1" parent="WIyWlLk6GJQsqaUBKTNV-1">
          <mxGeometry x="260" y="250" width="240" height="30" as="geometry" />
        </mxCell>
        <mxCell id="v79lF2Q3xI-dIGiR_FVk-22" style="edgeStyle=orthogonalEdgeStyle;rounded=0;orthogonalLoop=1;jettySize=auto;html=1;entryX=0.5;entryY=0;entryDx=0;entryDy=0;" edge="1" parent="WIyWlLk6GJQsqaUBKTNV-1" source="v79lF2Q3xI-dIGiR_FVk-18" target="v79lF2Q3xI-dIGiR_FVk-16">
          <mxGeometry relative="1" as="geometry" />
        </mxCell>
        <mxCell id="v79lF2Q3xI-dIGiR_FVk-18" value="parse_env(char *env)" style="rounded=1;whiteSpace=wrap;html=1;fontSize=12;glass=0;strokeWidth=1;shadow=0;" vertex="1" parent="WIyWlLk6GJQsqaUBKTNV-1">
          <mxGeometry x="260" y="210" width="240" height="20" as="geometry" />
        </mxCell>
        <mxCell id="v79lF2Q3xI-dIGiR_FVk-31" style="edgeStyle=orthogonalEdgeStyle;rounded=0;orthogonalLoop=1;jettySize=auto;html=1;entryX=0.5;entryY=0;entryDx=0;entryDy=0;" edge="1" parent="WIyWlLk6GJQsqaUBKTNV-1" source="v79lF2Q3xI-dIGiR_FVk-27" target="v79lF2Q3xI-dIGiR_FVk-29">
          <mxGeometry relative="1" as="geometry" />
        </mxCell>
        <mxCell id="v79lF2Q3xI-dIGiR_FVk-27" value="child_process_in(int infile)" style="rounded=1;whiteSpace=wrap;html=1;fontSize=12;glass=0;strokeWidth=1;shadow=0;" vertex="1" parent="WIyWlLk6GJQsqaUBKTNV-1">
          <mxGeometry x="260" y="300" width="240" height="20" as="geometry" />
        </mxCell>
        <mxCell id="v79lF2Q3xI-dIGiR_FVk-29" value="dup2 file to stdin | dup2" style="rounded=1;whiteSpace=wrap;html=1;fontSize=12;glass=0;strokeWidth=1;shadow=0;" vertex="1" parent="WIyWlLk6GJQsqaUBKTNV-1">
          <mxGeometry x="260" y="340" width="240" height="20" as="geometry" />
        </mxCell>
        <mxCell id="v79lF2Q3xI-dIGiR_FVk-32" value="Sam&lt;br&gt;" style="shape=umlActor;verticalLabelPosition=bottom;verticalAlign=top;html=1;outlineConnect=0;" vertex="1" parent="WIyWlLk6GJQsqaUBKTNV-1">
          <mxGeometry x="365" y="380" width="30" height="60" as="geometry" />
        </mxCell>
        <mxCell id="v79lF2Q3xI-dIGiR_FVk-33" value="" style="ellipse;shape=cloud;whiteSpace=wrap;html=1;fillColor=#f5f5f5;fontColor=#333333;strokeColor=#666666;" vertex="1" parent="WIyWlLk6GJQsqaUBKTNV-1">
          <mxGeometry x="385" y="390" width="10" height="10" as="geometry" />
        </mxCell>
        <mxCell id="v79lF2Q3xI-dIGiR_FVk-34" value="" style="ellipse;whiteSpace=wrap;html=1;" vertex="1" parent="WIyWlLk6GJQsqaUBKTNV-1">
          <mxGeometry x="370" y="380" width="20" height="10" as="geometry" />
        </mxCell>
        <mxCell id="v79lF2Q3xI-dIGiR_FVk-35" value="" style="rounded=0;whiteSpace=wrap;html=1;" vertex="1" parent="WIyWlLk6GJQsqaUBKTNV-1">
          <mxGeometry x="365" y="380" width="10" height="10" as="geometry" />
        </mxCell>
      </root>
    </mxGraphModel>
  </diagram>
</mxfile>
